<svg xmlns="http://www.w3.org/2000/svg" viewBox="0 0 53.64 40.2"><title>everything</title><path d="M53,20.9a.89.89,0,0,0,.89-.89V16.44a.89.89,0,0,0-.89-.89H51l-.72-2.9a.89.89,0,0,0-.87-.68H35.09a.89.89,0,0,0-.87.68l-.72,2.9h-2a.89.89,0,0,0-.89.89V20a.89.89,0,0,0,.89.89H33.4l.21,1.79h-1.2a.89.89,0,0,0-.89.89v6.25a.89.89,0,0,0,.89.89h2.15L35,34.3H32.31a4.22,4.22,0,0,0-1.79-2.63L26.81,29.2A4.46,4.46,0,0,0,24,26.39l-2.75-.92a3.57,3.57,0,0,0-3.13-1.89H16.31a3.57,3.57,0,0,0-3.13,1.89l-2.75.92A4.46,4.46,0,0,0,7.61,29.2L3.89,31.67A4.22,4.22,0,0,0,2.11,34.3h-1a.89.89,0,0,0-.89.89.87.87,0,0,0,0,.15L.5,37a5.34,5.34,0,0,0,5.29,4.48h42.5A5.35,5.35,0,0,0,53.58,37l.27-1.63a.89.89,0,0,0-.74-1H49.51l.42-3.57h2.15a.89.89,0,0,0,.89-.89V23.58a.89.89,0,0,0-.89-.89h-1.2l.21-1.79ZM35.79,13.76H48.7l.45,1.79H35.34ZM27,31.5l2.49,1.66a2.44,2.44,0,0,1,.92,1.14H27Zm-5.36-4,1.74.58a2.68,2.68,0,0,1,1.83,2.54V34.3H21.68Zm-7.15-.35a1.79,1.79,0,0,1,1.79-1.79H18.1a1.79,1.79,0,0,1,1.79,1.79V34.3H14.53ZM9.16,30.62A2.68,2.68,0,0,1,11,28.08l1.74-.58v6.8H9.16ZM4.89,33.16,7.37,31.5v2.8H4A2.44,2.44,0,0,1,4.89,33.16Zm47,2.93-.1.59a3.56,3.56,0,0,1-3.53,3H5.79a3.56,3.56,0,0,1-3.53-3l-.1-.59ZM36.36,30.73H48.13L47.7,34.3H36.78Zm14.82-6.25v4.47H33.3V24.47Zm-16-3.57H49.28l-.21,1.79H35.41Zm-2.79-1.79V17.33H52.08v1.79Zm10.1-11c.44.44.63.65.63,1.16a.89.89,0,0,0,1.79,0,3.18,3.18,0,0,0-1.16-2.42c-.44-.44-.63-.65-.63-1.15s.19-.71.63-1.16a3.18,3.18,0,0,0,1.16-2.42.89.89,0,0,0-1.79,0c0,.5-.19.71-.63,1.15a3.11,3.11,0,0,0,0,4.84Zm5.36,0c.44.44.63.65.63,1.16a.89.89,0,0,0,1.79,0,3.18,3.18,0,0,0-1.16-2.42c-.44-.44-.63-.65-.63-1.15s.19-.71.63-1.16a3.18,3.18,0,0,0,1.16-2.42.89.89,0,0,0-1.79,0c0,.5-.19.71-.63,1.15a3.11,3.11,0,0,0,0,4.84Z" transform="translate(-0.22 -1.25)" fill="#757575"/></svg>