<?xml version="1.0" encoding="utf-8"?>
<!-- Generator: Adobe Illustrator 24.0.0, SVG Export Plug-In . SVG Version: 6.00 Build 0)  -->
<svg version="1.1" id="Capa_1" xmlns="http://www.w3.org/2000/svg" xmlns:xlink="http://www.w3.org/1999/xlink" x="0px" y="0px"
	 viewBox="0 0 512 512" style="enable-background:new 0 0 512 512;" xml:space="preserve">
<style type="text/css">
	.st0{fill:#747474;}
</style>
<g>
	<path class="st0" d="M263,262.3l15.3,5.9c0.9,0.3,1.8,0.5,2.7,0.5c3,0,5.9-1.8,7-4.8c1.5-3.9-0.5-8.2-4.3-9.7l-15.3-5.9
		c-3.9-1.5-8.2,0.5-9.7,4.3C257.2,256.5,259.2,260.9,263,262.3L263,262.3z"/>
	<path class="st0" d="M484.6,288.8h-4.1c7.2-4.7,13.3-10.4,17.2-17.4c4.3-8,5.2-16.6,2.5-25.7c-2.5-8.4-7.2-14.8-14.2-19.1
		c3.4-8.5,5.1-17.7,5.1-26.9c0-40.4-32.8-73.2-73.2-73.2c-19.5,0-38,7.8-51.7,21.4l-34.7-49.7c-1.2-1.7-3.1-2.9-5.2-3.2
		c-2.1-0.3-4.2,0.4-5.8,1.8c-9.4,8.1-17.1,18-22.6,29c-7.7,0.8-14.9,4.1-20.6,7.6c-1.3-12-4.3-29.3-11.6-43.2
		c-1.9-3.7-6.4-5.1-10.1-3.2c-3.7,1.9-5.1,6.4-3.2,10.1c10.5,20.2,10.8,50.6,10.8,50.9c0,3,1.9,5.8,4.7,6.9c0.9,0.4,1.9,0.6,2.8,0.6
		c2,0,3.9-0.8,5.3-2.2c0.1-0.1,6.9-6.8,15.3-10.4c-1,3.5-1.8,7.1-2.3,10.8c-2.8,18.1-0.2,36.4,7.2,52.9L229,236.8
		c-15.3-26.5-31.2-39-47.2-37.2c-4.5,0.5-8.2,1.7-11.1,3.1c-12.1-19.3-16.8-34.3-12.6-40.6c1.6-2.4,6.3-9.6,20.7-6.3
		c8.5,1.9,15.8,6.5,15.8,6.5c2.6,1.6,5.8,1.6,8.3-0.2c2.5-1.7,3.7-4.8,3-7.8c-1-4.7-2.3-12.7-2.8-21.8c0-0.2,0-0.4,0-0.6
		c-0.7-14.7,0.5-31.9,7.8-42.1c3.8-5.3,9-8.3,15.9-9c2.1-0.2,4.1-0.2,6,0c4.1,0.5,7.9-2.4,8.4-6.5s-2.4-7.9-6.5-8.4
		c-3.1-0.4-6.3-0.4-9.6,0c-11.2,1.2-20.1,6.3-26.4,15.2c-6.2,8.6-9.8,20.7-10.6,35.8c-11.7-7.5-25.3-11.6-39.5-11.6
		c-40.4,0-73.2,32.8-73.2,73.2c0,14.2,4.1,27.9,11.8,39.8c-0.5,4.1-0.4,8.2,0.1,12.2c-14.6-4.2-37.9-8.6-54.4-0.7
		c-8.9,4.2-14.8,11.3-17.7,21.1c-4.9,16.7,2.5,29.1,12.9,37.9h-0.8c-15,0-27.3,12.3-27.3,27.4v1.6c0,15.1,12.3,27.4,27.4,27.4h24.8
		l60.1,58.6c-4.4,4.6-7,10.8-7,17.6v0.2c0,13.8,11.3,24.6,25.6,24.6h250.2c14.4,0,25.6-10.8,25.6-24.6v-0.2c0-6.8-2.7-13-7-17.6
		l60.1-58.6h24.8c15.1,0,27.4-12.3,27.4-27.4v-1.6C512,301.1,499.7,288.8,484.6,288.8L484.6,288.8z M484.6,264.3
		c-5,9.2-19.3,17.9-39.3,23.7c-0.7,0.2-1.3,0.5-1.9,0.8H304c14.4-21.6,19.2-47.8,13.4-73.1c5.3-4.7,10.2-6.8,14.6-6.3
		c7.4,0.8,8.9,3.7,9.4,4.7c3.2,6-1.2,18.1-3.8,23.1c-1.8,3.4-0.7,7.7,2.5,9.8s7.6,1.4,10-1.6c12.2-15.3,31.1-33.6,44.3-39.9
		c0.6-0.2,1.1-0.4,1.6-0.7c3.8-1.6,7-2.1,9.4-1c3.7,1.6,8.6,5,8.1,16c-0.3,7.5-3.1,14.4-3.1,14.4c-1.2,2.8-0.5,6,1.6,8.2
		c2.1,2.1,5.4,2.8,8.2,1.6c10.1-4.2,39.8-13.3,55.8-5.6c5,2.4,8.2,6.2,9.8,11.8C487.4,255.2,486.9,259.9,484.6,264.3L484.6,264.3z
		 M254.8,283.5l-6.7-15c-1.7-3.8-6.1-5.5-9.9-3.8s-5.5,6.1-3.8,9.9l6.4,14.2h-23.6l2.8-7.2c1.5-3.9-0.5-8.2-4.3-9.7
		c-3.9-1.5-8.2,0.5-9.7,4.3l-4.8,12.6h-34.9c-0.1-0.2-3.1-3.8-4.3-5.5l141-63.1c5,23.4-1,48.5-16.5,67.1c-0.4,0.5-0.7,1-1,1.5h-30.4
		C255.7,287.1,255.6,285.2,254.8,283.5L254.8,283.5z M392.3,185.3c5.2-9.2,14.9-15,25.7-15c16.3,0,29.5,13.2,29.5,29.5
		c0,9-4,17.3-11,23c-0.3,0.2-0.5,0.5-0.8,0.7c-2.7,0.6-5.3,1.3-7.6,2c1.7-13.1-0.9-28.7-16.7-35.5c-4.8-2.1-10.3-2.3-16.3-0.6
		L392.3,185.3z M418,141.6c32.1,0,58.2,26.1,58.2,58.2c0,7.5-1.4,14.8-4.2,21.6c-4.7-0.9-9.7-1.2-14.6-1c3.3-6.3,5.1-13.3,5.1-20.6
		c0-24.5-20-44.5-44.5-44.5c-13.8,0-26.6,6.4-34.9,16.9l-8.1-11.6C386.1,148.5,401.6,141.6,418,141.6L418,141.6z M324.3,114.1
		l56.9,81.6c-5.6,3.5-11.6,8.1-18.1,14c-2.1,1.9-4,3.8-5.9,5.6c-0.4-2.8-1.2-5.6-2.6-8.2c-2.6-5-8.4-11.2-21-12.6
		c-7.7-0.9-15.4,1.6-23,7.3c-6.7-14.2-9.1-30.1-6.7-45.8C306.4,140.3,313.5,125.7,324.3,114.1L324.3,114.1z M160,213.9
		c-0.9,2.1-1.5,4.3-1.8,6.5c-1.9-1.9-3.9-3.8-5.9-5.6c-10.4-9.4-19.5-15.7-27.7-19c-0.1-0.1-0.1-0.3-0.2-0.4
		c-3.5-5-5.3-10.8-5.3-16.9c0-16.3,13.2-29.5,29.5-29.5c0.3,0,0.5,0,0.8,0c-1.4,1.4-2.7,3-3.9,4.8
		C137.2,166.6,141.9,186.2,160,213.9L160,213.9z M90.4,178.6c0-32.1,26.1-58.2,58.2-58.2c14.9,0,28.9,5.6,39.8,15.7
		c0.2,2.5,0.4,4.9,0.7,7.1c-5.6-1.9-11.9-3.2-18.1-3.1c-6.8-3.9-14.4-6-22.4-6c-24.5,0-44.5,20-44.5,44.5c0,5.3,0.9,10.5,2.8,15.4
		c-1,0.3-1.9,0.6-2.8,1c-3.7,1.6-6.7,3.7-9.1,6.1C92,194.1,90.4,186.4,90.4,178.6L90.4,178.6z M56.5,288.3
		c-21.6-9-30.6-20.2-26.8-33.1c1.6-5.5,4.8-9.4,9.8-11.8c15.9-7.6,45.7,1.5,55.8,5.6c2.8,1.2,6,0.5,8.1-1.6s2.8-5.3,1.7-8.1
		c0-0.1-2.8-6.9-3.1-14.4c-0.5-11,4.4-14.4,8.1-16c10.7-4.6,39,21.3,55.4,41.7c2.4,3,6.7,3.7,10,1.6c3.2-2.1,4.3-6.4,2.5-9.8
		c-2.6-4.9-6.9-17.1-3.8-23.1c0.5-1,2-3.9,9.4-4.7c9-1,20.4,9.3,31.8,28.4l-67.5,30.2c-1.9,0.9-3.4,2.5-4.1,4.5s-0.4,4.2,0.6,6.1
		c1,1.7,2,3.4,3.1,5h-90C57.2,288.6,56.8,288.4,56.5,288.3L56.5,288.3z M391.7,421.6c0,6.3-5.4,9.6-10.6,9.6H130.9
		c-5.3,0-10.6-3.3-10.6-9.6v-0.2c0-5.9,4.8-10.6,10.6-10.6h250.2c5.9,0,10.6,4.8,10.6,10.6L391.7,421.6L391.7,421.6z M497,317.8
		c0,6.8-5.5,12.4-12.4,12.4H143.5c-4.1,0-7.5,3.4-7.5,7.5s3.4,7.5,7.5,7.5h294.9l-51.9,50.6h-5.3H130.9h-5.3l-51.9-50.6h39.8
		c4.1,0,7.5-3.4,7.5-7.5s-3.4-7.5-7.5-7.5H27.4c-6.8,0-12.4-5.5-12.4-12.4v-1.6c0-6.8,5.5-12.4,12.4-12.4h457.3
		c6.8,0,12.4,5.5,12.4,12.4L497,317.8L497,317.8z"/>
	<path class="st0" d="M328.2,181.2c0.1,0,0.2,0,0.3,0l14.1-0.6c4.1-0.2,7.4-3.6,7.2-7.8c-0.2-4.1-3.7-7.3-7.8-7.2l-14.1,0.6
		c-4.1,0.2-7.4,3.6-7.2,7.8C320.8,178.1,324.2,181.2,328.2,181.2L328.2,181.2z"/>
</g>
</svg>
