<svg xmlns="http://www.w3.org/2000/svg" viewBox="0 0 54.91 54.88"><title>paleo</title><path d="M40.15,17H44.3a5.27,5.27,0,0,0,3.46,3,5.62,5.62,0,0,0,1.59.23,5.06,5.06,0,0,0,2.43-.6,4,4,0,0,0,2-2.38,4.4,4.4,0,0,0-1.94-4.76A4.8,4.8,0,0,0,54,7.3a4,4,0,0,0-2-2.38,5.31,5.31,0,0,0-4-.37,5.71,5.71,0,0,0-3.73,3.25H40C34.41,4.69,29.62,2.25,25.76.57l-.11,0-.11,0h-.26l-.16,0L25,.61l-.15.1-.11.11a.91.91,0,0,0-.11.16l0,.05a1,1,0,0,0,0,.11l0,.11a2.45,2.45,0,0,1-2.4,2.09,2.33,2.33,0,0,1-1.73-.76l-.06,0-.15-.11L20,2.35l-.07,0h-.09a.88.88,0,0,0-.36,0l-.16.06-.16.09-.08,0,0,.06a.84.84,0,0,0-.11.15.94.94,0,0,0-.08.16s0,0,0,.07a3.58,3.58,0,0,1-3.42,2.68,3.52,3.52,0,0,1-3.18-2l0,0a.86.86,0,0,0-.11-.15l-.12-.13,0,0-.11,0-.17-.07-.17,0a.69.69,0,0,0-.36,0l-.11,0,0,0-.15.11-.13.12,0,0a2.36,2.36,0,0,1-2,1,2.42,2.42,0,0,1-2.29-1.7l0,0a.9.9,0,0,0-.09-.16.84.84,0,0,0-.11-.15l0,0L6,2.33l-.16-.09-.17,0-.16,0-.19,0H5.23l0,0L5,2.32l-.15.11,0,0A14.71,14.71,0,0,0,15.78,27C21.45,27,34.49,20.11,40.15,17Zm.33-7.32H45l.11,0a.85.85,0,0,0,.22,0l.09,0a.83.83,0,0,0,.21-.14l.07-.08a.89.89,0,0,0,.13-.18A.83.83,0,0,0,45.84,9a1,1,0,0,0,0-.13,3.62,3.62,0,0,1,2.63-2.53,3.47,3.47,0,0,1,2.62.22,2.17,2.17,0,0,1,1.08,1.29,3.13,3.13,0,0,1-2.33,3.52,3.26,3.26,0,0,1-.7.13l-.09,0-.09,0a.84.84,0,0,0-.25.12l-.09.08-.11.12a.85.85,0,0,0-.21.47.91.91,0,0,0,.76,1,5.28,5.28,0,0,1,.54.12c1.67.49,2.72,2,2.33,3.29A2.17,2.17,0,0,1,50.9,18a3.46,3.46,0,0,1-2.62.22,3.31,3.31,0,0,1-2.4-2.33l0-.09a.81.81,0,0,0-.07-.17.85.85,0,0,0-.1-.14l-.12-.12-.14-.09-.17-.07-.17,0-.1,0H40.39a3.37,3.37,0,0,1-1.19-2.7A3.34,3.34,0,0,1,40.48,9.64ZM2.87,12.3A12.83,12.83,0,0,1,5.36,4.7a4.18,4.18,0,0,0,5.87.74,5.28,5.28,0,0,0,4.15,2,5.37,5.37,0,0,0,4.7-2.84,4.17,4.17,0,0,0,2,.54,4.23,4.23,0,0,0,3.85-2.52c3.49,1.57,7.69,3.72,12.52,6.4a5.45,5.45,0,0,0-1.1,3.37,5.45,5.45,0,0,0,1.1,3.37c-5.14,2.83-17.61,9.39-22.69,9.39A12.91,12.91,0,0,1,2.87,12.3ZM29.7,17.13a.92.92,0,0,0-1.36-1C22.2,19.81,15.13,23,9.21,18.7a.91.91,0,1,0-1.08,1.48,12.35,12.35,0,0,0,7.45,2.44c4.65,0,9.4-2.35,13.7-4.93A.91.91,0,0,0,29.7,17.13ZM55.75,38.85a25.65,25.65,0,0,0-11.69-7.5,8.1,8.1,0,0,0-2.74-5.7c-3.38-2.88-8.54-2.25-8.76-2.22a.92.92,0,0,0-.77.59.87.87,0,0,0,.19.91s1,1.3,1.07,6.4a33,33,0,0,0-6.7,2.58c-5.53-7.74-12.38-5-12.45-5a.91.91,0,0,0-.07,1.66,9.78,9.78,0,0,1,4.77,8.66.75.75,0,0,1,0,.1s0,.07,0,.11a9.75,9.75,0,0,1-4.76,8.45.91.91,0,0,0,.07,1.66,8.75,8.75,0,0,0,3,.48c2.35,0,5.75-.83,8.83-4.65a31.35,31.35,0,0,0,7.06,3.29,3.66,3.66,0,0,1,.44,4.95.91.91,0,0,0,.25,1.25,3.58,3.58,0,0,0,2,.52,4.79,4.79,0,0,0,1-.12c2.31-.51,4.61-2.64,6.84-6.31,7.51-2.11,12.25-8.66,12.48-9A.91.91,0,0,0,55.75,38.85ZM40.14,27.05a6.14,6.14,0,0,1,2,3.86,19.5,19.5,0,0,0-3.51-.32,21.47,21.47,0,0,0-3.77.35,21.13,21.13,0,0,0-.79-5.75A9.68,9.68,0,0,1,40.14,27.05ZM16.49,30.23c2-.11,5.25.49,8.24,4.55a43.46,43.46,0,0,0-4.39,2.84A11.57,11.57,0,0,0,16.49,30.23Zm0,18h0a11.57,11.57,0,0,0,3.76-6.86,43.61,43.61,0,0,0,3.94,3C21.35,47.78,18.35,48.3,16.49,48.2Zm19.66,5.25a2.86,2.86,0,0,1-.82.09,5.3,5.3,0,0,0,.05-4.25,18.33,18.33,0,0,0,3.27.31,16.86,16.86,0,0,0,2.15-.14C38.84,52.25,37.22,53.19,36.15,53.45Zm2.5-5.68c-7.75,0-15.34-6.17-17.72-8.29,2.44-1.85,10-7.08,17.72-7.08a17.6,17.6,0,0,1,4.53.61c-1.14,2.37-3.24,8.3.94,13.72A15.49,15.49,0,0,1,38.65,47.77ZM45.85,46h0c-4.18-5-1.88-10.56-.92-12.4a24.93,24.93,0,0,1,8.92,5.9A25.78,25.78,0,0,1,45.85,46ZM37.65,34.33C30,34.33,26.18,38.1,26,38.26a.91.91,0,0,0,1.29,1.3s3.53-3.39,10.34-3.39a.91.91,0,1,0,0-1.83Zm8.31,4a.7.7,0,0,0,.08.16l.11.14a.94.94,0,0,0,.65.27l.17,0a.57.57,0,0,0,.17-.05.52.52,0,0,0,.16-.08l.15-.11.11-.14a.72.72,0,0,0,.08-.16.54.54,0,0,0,.05-.16,1.07,1.07,0,0,0,0-.18.91.91,0,0,0-.07-.35.94.94,0,0,0-.19-.3l-.15-.11a.52.52,0,0,0-.16-.08A.56.56,0,0,0,47,37.1a.91.91,0,0,0-.82.25.93.93,0,0,0-.19.3.92.92,0,0,0-.07.35,1.29,1.29,0,0,0,0,.18A.59.59,0,0,0,46,38.34Z" transform="translate(-1.04 -0.5)" fill="#757575"/></svg>