<svg xmlns="http://www.w3.org/2000/svg" viewBox="0 0 54.88 34.72"><title>pescatarian</title><path d="M51.65,12.86a27.48,27.48,0,0,0-9.06-5.18h0A29.89,29.89,0,0,0,37.7,6.42,18.16,18.16,0,0,0,28,.55a3.11,3.11,0,0,0-3.8,3V8a38.46,38.46,0,0,0-11.58,8.34,10.49,10.49,0,0,0-2.69-5.41C6.8,7.84,1.83,8,1.62,8A1.16,1.16,0,0,0,.5,9.1c0,.21-.13,5.18,3,8.26A8.75,8.75,0,0,0,6,19.1a9,9,0,0,0-2.54,1.75c-3.09,3.09-3,8.06-3,8.27a1.16,1.16,0,0,0,1.12,1.12H1.8c1,0,5.29-.16,8.09-3a10.56,10.56,0,0,0,2.7-5.5A41.79,41.79,0,0,0,20.24,28v4a3.12,3.12,0,0,0,3.1,3.11,3.15,3.15,0,0,0,.9-.13,17.57,17.57,0,0,0,5.9-3.17A19.43,19.43,0,0,0,33,32.1a29.12,29.12,0,0,0,9.4-1.58h0c7.18-2.45,13-7.58,13-11.46C55.38,17.21,54.06,15,51.65,12.86ZM5.09,15.72a9.08,9.08,0,0,1-2.21-5.37,9,9,0,0,1,5.37,2.22,9,9,0,0,1,2.21,5.3A8.79,8.79,0,0,1,5.09,15.72Zm3.16,9.93a9.07,9.07,0,0,1-5.37,2.21,9.08,9.08,0,0,1,2.21-5.37,9.09,9.09,0,0,1,5.38-2.21A9,9,0,0,1,8.25,25.65ZM26.48,3.58a.8.8,0,0,1,.3-.63.77.77,0,0,1,.66-.15A16.19,16.19,0,0,1,34,6L33,6A20.73,20.73,0,0,0,26.48,7.1Zm-2.9,29.26a.79.79,0,0,1-.71-.12.78.78,0,0,1-.32-.64V29.35a26.47,26.47,0,0,0,4.57,1.86A14.6,14.6,0,0,1,23.58,32.84ZM33,29.78a17.3,17.3,0,0,1-3-.26,23.65,23.65,0,0,1-8-3.13,40,40,0,0,1-8.78-7.33c1.65-1.84,6.41-6.74,12.54-9.22h0A19.16,19.16,0,0,1,33,8.33a26.25,26.25,0,0,1,3.94.3,27.23,27.23,0,0,1,3,.63,15.12,15.12,0,0,0-4,10.05,14.87,14.87,0,0,0,3.83,9.57A26.52,26.52,0,0,1,33,29.78Zm9.27-1.67a12.42,12.42,0,0,1-4-8.79,12.66,12.66,0,0,1,4.17-9.25c6.63,2.48,10.67,6.85,10.67,9S49,25.64,42.23,28.11ZM46.5,17.64a1.16,1.16,0,0,0-1.16,1.16v.52a1.16,1.16,0,0,0,2.32,0V18.8A1.16,1.16,0,0,0,46.5,17.64ZM32.88,11.32l-.33.36a1.16,1.16,0,0,0,1.77,1.49l.23-.26a1.16,1.16,0,1,0-1.68-1.59Zm-.52,8A10.92,10.92,0,0,1,33,15.39a1.16,1.16,0,0,0-2.16-.83A13.25,13.25,0,0,0,30,19.27,11.81,11.81,0,0,0,32.63,27a1.16,1.16,0,0,0,1.75-1.52A9.48,9.48,0,0,1,32.35,19.27Z" transform="translate(-0.5 -0.47)" fill="#757575"/></svg>