<svg xmlns="http://www.w3.org/2000/svg" viewBox="0 0 55 55"><title>gluten-free</title><path d="M28,55.5A27.5,27.5,0,0,1,8.55,8.55,27.5,27.5,0,0,1,47.45,47.45,27.32,27.32,0,0,1,28,55.5ZM38,19.93V41.29a1.31,1.31,0,0,1-.52,1l-8.2,6.13v4.39l.35,0A24.9,24.9,0,0,0,47.86,13l-.2-.26ZM7.78,42.53l.19.26A25.3,25.3,0,0,0,10.4,45.6a24.83,24.83,0,0,0,15.95,7.24l.35,0V48.47l-8.2-6.13a1.31,1.31,0,0,1-.52-1V34.92ZM29.3,37.68v7.53l6.12-4.57V33.1Zm-8.73,3,6.12,4.57V37.68L20.58,33.1ZM28,3.11A24.91,24.91,0,0,0,6.18,40l.18.33L18,31.66V14.25a1.3,1.3,0,0,1,2.61,0v4.37l6.12,4.57V9.9a1.3,1.3,0,1,1,2.61,0V23.19l6.12-4.57V14.25a1.3,1.3,0,0,1,2.61,0v2.42l7.92-5.92-.26-.27-.09-.09A24.73,24.73,0,0,0,28,3.11Zm1.3,23.34v8l6.12-4.57v-8Zm-6.64,5,4,3v-6Zm-2.09-1.69,5.24-3.92-5.24-3.92Z" transform="translate(-0.5 -0.5)" fill="#757575"/></svg>