<svg xmlns="http://www.w3.org/2000/svg" viewBox="0 0 41.52 55.36"><title>vegan</title><path d="M42.9,49.42,36.69,22.5a4.59,4.59,0,0,0-4.5-3.58H26.87V14.31H28A12.7,12.7,0,0,0,40.71,1.62,1.15,1.15,0,0,0,39.56.47H5A1.15,1.15,0,0,0,3.81,1.62,12.7,12.7,0,0,0,16.49,14.31h1.15v4.61H12.33a4.59,4.59,0,0,0-4.5,3.58L1.53,49.8a1.18,1.18,0,0,0,0,.26v1.15a4.62,4.62,0,0,0,4.61,4.61H38.41A4.62,4.62,0,0,0,43,51.22v-.76A4.58,4.58,0,0,0,42.9,49.42ZM16.49,12A10.39,10.39,0,0,1,6.18,2.78H38.34A10.39,10.39,0,0,1,28,12Zm8.07,2.31v4.61H20V14.31ZM40.71,51.22h0a2.31,2.31,0,0,1-2.31,2.31H6.11a2.31,2.31,0,0,1-2.31-2.31v-1L10.08,23a2.3,2.3,0,0,1,2.25-1.79H32.19A2.3,2.3,0,0,1,34.44,23l6.21,26.93a2.22,2.22,0,0,1,.06.51ZM22.26,25.84A11.53,11.53,0,1,0,33.79,37.38,11.55,11.55,0,0,0,22.26,25.84Zm0,20.76a9.23,9.23,0,1,1,9.23-9.23A9.24,9.24,0,0,1,22.26,46.6Zm-15,2.31a1.15,1.15,0,1,0,1.15,1.15A1.15,1.15,0,0,0,7.27,48.91Zm15-18.45a1.15,1.15,0,0,0-1.13.9c-.44,2-1.18,5.35-1.18,6a2.31,2.31,0,1,0,4.61,0c0-.67-.74-4.06-1.18-6A1.15,1.15,0,0,0,22.26,30.46Z" transform="translate(-1.5 -0.47)" fill="#757575"/></svg>